# xmcd CD database file
#
# Track frame offsets:
#	151
#	13606
#	27368
#	41500
#	54742
#	71652
#	84917
#	95826
#	110571
#	120463
#	131640
#	141211
#	155627
#	169383
#	183430
#	194524
#
# Disc length: 2746 seconds
#
# Revision: 0
# Processed by: cddbd v1.4PL0 Copyright (c) Steve Scherf et al.
# Submitted via: CDex 1.40Release
#
DISCID=e60ab810
DTITLE=Willie Nelson - Legendary Willie Nelson [CD3)
DYEAR=2003
DGENRE=Country
TTITLE0=Good Hearted Woman (w/ Waylon Jennings)
TTITLE1=If You Can Touxh Her At All
TTITLE2=Sweet Memories
TTITLE3=Help Me Make it Through the Night
TTITLE4=Me and Paul
TTITLE5=Fire and Rain
TTITLE6=Shes Still Gone
TTITLE7=Little Things
TTITLE8=Mr. Record Man
TTITLE9=I'm a Memory
TTITLE10=San Antonio Rose
TTITLE11=Family Bible
TTITLE12=Don't Cuss the Fille (w/ Waylon Jennings)
TTITLE13=Goin' Home
TTITLE14=Phases and Stages, Circle, Cycles and Scenes
TTITLE15=Mams Don't Let Your Babies Grow Up to be Cowboys (w/ Waylon Jennings)
EXTD=YEAR: 2003 ID3G: 2
EXTT0=
EXTT1=
EXTT2=
EXTT3=
EXTT4=
EXTT5=
EXTT6=
EXTT7=
EXTT8=
EXTT9=
EXTT10=
EXTT11=
EXTT12=
EXTT13=
EXTT14=
EXTT15=
PLAYORDER=
